<svg id="Componente_1" data-name="Componente 1" xmlns="http://www.w3.org/2000/svg" width="30" height="30" viewBox="0 0 30 30">
  <path id="Trazado_12" data-name="Trazado 12" d="M30.855,2.031A1.888,1.888,0,0,0,28.98.156H2.73A1.889,1.889,0,0,0,.855,2.031v26.25A1.888,1.888,0,0,0,2.73,30.156H16.9V18.5h-3.75V14.175H16.9V10.439c0-3.413,2.08-5.7,6.2-5.7a21.169,21.169,0,0,1,3.076.2v3.9H23.355a1.709,1.709,0,0,0-1.875,1.933v3.4h4.38L25.23,18.5H21.48v11.66h7.5a1.887,1.887,0,0,0,1.875-1.875Z" transform="translate(-0.855 -0.156)" fill="#64c7dc" fill-rule="evenodd"/>
</svg>
