<svg id="Componente_1" data-name="Componente 1" xmlns="http://www.w3.org/2000/svg" width="30" height="30" viewBox="0 0 30 30">
  <path id="Trazado_9" data-name="Trazado 9" d="M26.476.156H5.235a4.383,4.383,0,0,0-4.38,4.38v21.24a4.383,4.383,0,0,0,4.38,4.38H26.476a4.382,4.382,0,0,0,4.379-4.38V4.536A4.382,4.382,0,0,0,26.476.156ZM15.855,9.531a5.625,5.625,0,1,1-5.625,5.625A5.626,5.626,0,0,1,15.855,9.531Zm11.88,16.875a.625.625,0,0,1-.63.63H4.605a.625.625,0,0,1-.629-.63V13.281H7.3a8.746,8.746,0,1,0,17.109,0h3.325Zm0-18.75a.625.625,0,0,1-.63.63h-3.75a.625.625,0,0,1-.629-.63V3.906a.625.625,0,0,1,.629-.63H27.1a.625.625,0,0,1,.63.63Z" transform="translate(-0.855 -0.156)" fill="#ddbd2a" fill-rule="evenodd"/>
</svg>
