<svg id="Componente_1" data-name="Componente 1" xmlns="http://www.w3.org/2000/svg" width="30" height="30" viewBox="0 0 30 30">
  <path id="Trazado_8" data-name="Trazado 8" d="M30.38,3.807a10.307,10.307,0,0,1-3.545,1.208,7.443,7.443,0,0,0,2.71-4.2,11.081,11.081,0,0,1-3.882,1.839A5.868,5.868,0,0,0,21.137.274C17.738.274,15,3.645,15,7.828a9.662,9.662,0,0,0,.132,1.749A16.618,16.618,0,0,1,2.46,1.806a8.5,8.5,0,0,0-.835,3.678,8.1,8.1,0,0,0,2.754,6.274A5.31,5.31,0,0,1,1.6,10.821v.09c0,3.678,2.124,6.743,4.937,7.428a5.083,5.083,0,0,1-1.641.27,4.963,4.963,0,0,1-1.143-.144c.762,2.993,3.061,5.229,5.728,5.264a11.2,11.2,0,0,1-7.632,3.588A7.937,7.937,0,0,1,.38,27.191a14.894,14.894,0,0,0,9.448,3.083c11.309,0,17.49-11.539,17.49-21.545V7.738A14.435,14.435,0,0,0,30.38,3.807Z" transform="translate(-0.38 -0.274)" fill="#d086e2" fill-rule="evenodd"/>
</svg>
