<svg xmlns="http://www.w3.org/2000/svg" width="40" height="40" viewBox="0 0 40 40">
  <g id="Group_295662" data-name="Group 295662" transform="translate(-0.484 -0.484)">
    <rect id="Canvas" width="40" height="40" transform="translate(0.484 0.484)" fill="#8e8e8e" opacity="0"/>
    <path id="Path_127719" data-name="Path 127719" d="M32.69,10.322A10,10,0,0,0,13.322,6.861a8.788,8.788,0,0,0-8.75,8.421A5.945,5.945,0,0,0,.538,21.591a6.084,6.084,0,0,0,6.119,5.266h5.793A1.2,1.2,0,0,0,13.591,25.7a1.158,1.158,0,0,0-1.141-1.117h-5.8A3.8,3.8,0,0,1,2.786,21.12a3.658,3.658,0,0,1,3.454-3.85q.1-.005.2-.005h.409V15.639a6.508,6.508,0,0,1,8.194-6.281,7.724,7.724,0,1,1,15.1,3.073,6.1,6.1,0,1,1,.683,12.154H27.244a1.139,1.139,0,1,0,0,2.276h3.3a8.555,8.555,0,0,0,8.589-7.379,8.385,8.385,0,0,0-6.442-9.16Z" transform="translate(0.638 0.456)" fill="#8e8e8e"/>
    <path id="Path_123936" data-name="Path 123936" d="M10.211,15.731a1.311,1.311,0,0,0,1.311-1.311V4.646l1.516,1.633a1.312,1.312,0,1,0,1.922-1.785L11.172.414a1.356,1.356,0,0,0-1.922,0L5.462,4.494A1.312,1.312,0,1,0,7.384,6.279L8.9,4.646V14.42a1.311,1.311,0,0,0,1.311,1.311Z" transform="translate(10.274 13.451)" fill="#8e8e8e"/>
  </g>
</svg>