<?xml version="1.0" encoding="utf-8"?>
<!-- Generator: Adobe Illustrator 24.1.3, SVG Export Plug-In . SVG Version: 6.00 Build 0)  -->
<svg version="1.1" id="Design_here" xmlns="http://www.w3.org/2000/svg" xmlns:xlink="http://www.w3.org/1999/xlink" x="0px"
	 y="0px" viewBox="0 0 24 24" style="enable-background:new 0 0 24 24;" xml:space="preserve">
<path d="M15.522,11.719C16.73,10.71,17.5,9.193,17.5,7.5C17.5,4.467,15.033,2,12,2S6.5,4.467,6.5,7.5c0,1.693,0.77,3.21,1.978,4.219
	C5.261,13.093,3,16.287,3,20v1h18v-1C21,16.287,18.739,13.093,15.522,11.719z M8.5,7.5C8.5,5.57,10.07,4,12,4s3.5,1.57,3.5,3.5
	S13.93,11,12,11S8.5,9.43,8.5,7.5z M5.071,19c0.487-3.388,3.408-6,6.929-6s6.442,2.612,6.929,6H5.071z"/>
</svg>
