<svg xmlns="http://www.w3.org/2000/svg" width="1049.401" height="478.194" viewBox="0 0 1049.401 478.194">
  <g id="Master_Convertido_" data-name="Master [Convertido]" transform="translate(277.465)">
    <path id="Trazado_21" data-name="Trazado 21" d="M102.71,75.63A20.569,20.569,0,0,0,82.19,96.15V242.862a20.52,20.52,0,0,0,41.039,0V96.15A20.569,20.569,0,0,0,102.71,75.63Z" transform="translate(141.484 130.192)" fill="#f9d8c1" fill-rule="evenodd"/>
    <path id="Trazado_22" data-name="Trazado 22" d="M102.71,75.63h0A20.569,20.569,0,0,0,82.19,96.15V197.632a134.394,134.394,0,0,0,20.52,1.606,131.027,131.027,0,0,0,20.52-1.606V96.15A20.569,20.569,0,0,0,102.71,75.63Z" transform="translate(141.484 130.192)" fill="#fdb1a8" fill-rule="evenodd"/>
    <path id="Trazado_23" data-name="Trazado 23" d="M108.838,72.08h0A30.291,30.291,0,0,0,78.63,102.288V249a30.291,30.291,0,0,0,30.208,30.208h0A30.291,30.291,0,0,0,139.046,249V102.288A30.291,30.291,0,0,0,108.838,72.08ZM119.7,248.973a10.918,10.918,0,0,1-10.886,10.859h0a10.889,10.889,0,0,1-7.674-3.184,10.752,10.752,0,0,1-3.211-7.674V102.261a10.965,10.965,0,0,1,10.886-10.886h0A10.965,10.965,0,0,1,119.7,102.261Z" transform="translate(135.356 124.081)" fill="#4d4d4d"/>
    <path id="Trazado_24" data-name="Trazado 24" d="M173,18.62a131.661,131.661,0,1,0,93.073,38.563A131.106,131.106,0,0,0,173,18.62Z" transform="translate(71.198 32.053)" fill="#4d4d4d"/>
    <path id="Trazado_25" data-name="Trazado 25" d="M160.773,25.71a112.335,112.335,0,1,0,79.411,32.9,111.877,111.877,0,0,0-79.411-32.9Z" transform="translate(83.421 44.258)" fill="#dfe194" fill-rule="evenodd"/>
    <path id="Trazado_26" data-name="Trazado 26" d="M160.773,25.762A112.3,112.3,0,0,0,81.362,217.486c.327.327.626.626.952.925h0l.027.054c.3.272.571.572.871.844l.109.109c.272.272.571.544.844.789l.136.109c.272.245.544.517.816.762l.109.109h0l.136.136c.245.218.49.463.762.68l.218.218c.245.218.463.408.708.626l.408.354.136.109.136.109.136.109.136.109.544.435.136.109.136.109.136.109.136.109.517.435h0a112.367,112.367,0,0,0,134.9,5.552l.327-.245.735-.517.381-.272c.245-.163.49-.354.735-.544l.354-.245.708-.517.327-.245c.272-.218.544-.408.816-.626l.245-.191c.272-.218.544-.408.816-.626l.245-.191c.272-.218.544-.435.844-.653l.19-.163c.272-.218.572-.463.844-.68l.191-.163c.272-.218.571-.463.844-.708l.19-.163c.3-.245.6-.49.871-.762l.054-.054.082-.082c.3-.272.6-.517.9-.789h.027l.027-.054c.327-.272.626-.572.952-.844h0c.3-.3.6-.572.925-.871l.082-.082h.027c.3-.327.626-.6.925-.9l.054-.054c.653-.6,1.279-1.225,1.9-1.851A112.313,112.313,0,0,0,160.719,25.68Zm63.518,184.4a96.035,96.035,0,0,1-127.581-.49,34.242,34.242,0,0,0,.544-6.069V184.258a14.723,14.723,0,0,1,29.446,0v2.368a34.045,34.045,0,0,0,68.09,0V156.091a14.723,14.723,0,0,1,29.446,0v54.075Z" transform="translate(83.421 44.206)" fill="#567061" fill-rule="evenodd" opacity="0.2"/>
    <path id="Trazado_27" data-name="Trazado 27" d="M304.631,150.246a131.636,131.636,0,0,0-263.271,0v47.516a34.045,34.045,0,0,0,68.09,0V178.412a14.723,14.723,0,0,1,29.446,0v2.368a34.045,34.045,0,0,0,68.09,0V150.246a14.723,14.723,0,0,1,29.446,0v70.539a34.045,34.045,0,0,0,68.09,0H304.5V150.246h.136Z" transform="translate(71.198 32.036)" fill="#4d4d4d"/>
    <path id="Trazado_28" data-name="Trazado 28" d="M240.076,58.721a112.314,112.314,0,0,0-191.616,79.3V185.54a14.723,14.723,0,0,0,29.446,0V166.19a34.045,34.045,0,0,1,68.09,0v2.368a14.723,14.723,0,0,0,29.446,0V138.023a34.045,34.045,0,0,1,68.09,0v70.539a14.723,14.723,0,0,0,29.446,0h.027V138.023h-.027a111.914,111.914,0,0,0-32.984-79.3Z" transform="translate(83.421 44.258)" fill="#fd9b8f" fill-rule="evenodd"/>
    <path id="Trazado_29" data-name="Trazado 29" d="M240.076,58.721a112.314,112.314,0,0,0-191.616,79.3v14.1a112.3,112.3,0,0,1,224.6,0h.027v-14.1h-.027a111.914,111.914,0,0,0-32.984-79.3Z" transform="translate(83.421 44.258)" fill="#f9d8c1" fill-rule="evenodd"/>
    <path id="Trazado_30" data-name="Trazado 30" d="M63.183,93.333A14.774,14.774,0,0,1,48.46,78.61V94.5a14.723,14.723,0,0,0,29.446,0V78.61A14.774,14.774,0,0,1,63.183,93.333Z" transform="translate(83.421 135.322)" fill="#e17588" fill-rule="evenodd"/>
    <path id="Trazado_31" data-name="Trazado 31" d="M142.113,110.126A14.774,14.774,0,0,1,127.39,95.4V93.035a34.045,34.045,0,0,0-68.09,0v15.893a34.045,34.045,0,0,1,68.09,0V111.3a14.723,14.723,0,0,0,29.446,0V95.4a14.774,14.774,0,0,1-14.723,14.723Z" transform="translate(102.081 101.547)" fill="#e17588" fill-rule="evenodd"/>
    <path id="Trazado_32" data-name="Trazado 32" d="M163.24,82.675a34.045,34.045,0,0,0-68.09,0V98.568a34.045,34.045,0,0,1,68.09,0V82.675Z" transform="translate(163.794 83.713)" fill="#e17588" fill-rule="evenodd"/>
    <path id="Trazado_33" data-name="Trazado 33" d="M145.289,97.456a14.723,14.723,0,0,1-25.119-10.4v15.893a14.723,14.723,0,0,0,29.446,0h.027V87.06h-.027A14.668,14.668,0,0,1,145.289,97.456Z" transform="translate(206.864 149.868)" fill="#e17588" fill-rule="evenodd"/>
    <path id="Trazado_34" data-name="Trazado 34" d="M89.94,36.95,80.96,45.93a3.368,3.368,0,0,0,4.763,4.763L94.7,41.712A3.368,3.368,0,0,0,89.94,36.95Z" transform="translate(137.68 61.92)" fill="#4d4d4d" fill-rule="evenodd"/>
    <path id="Trazado_35" data-name="Trazado 35" d="M78.308,43.732a3.35,3.35,0,0,0-4.245,2.123l-4,12.029a3.356,3.356,0,0,0,6.368,2.123l4-12.029A3.35,3.35,0,0,0,78.308,43.732Z" transform="translate(120.303 74.977)" fill="#dfe194" fill-rule="evenodd"/>
    <path id="Trazado_36" data-name="Trazado 36" d="M91.272,45.334a3.358,3.358,0,0,0-4.082,5.334l10.1,7.674a3.35,3.35,0,1,0,4.055-5.334l-10.1-7.674Z" transform="translate(147.833 76.859)" fill="#aed197" fill-rule="evenodd"/>
    <path id="Trazado_37" data-name="Trazado 37" d="M109.512,43.564A3.358,3.358,0,1,0,105.43,48.9l10.1,7.674a3.358,3.358,0,1,0,4.082-5.334Z" transform="translate(179.232 73.812)" fill="#4d4d4d" fill-rule="evenodd"/>
    <path id="Trazado_38" data-name="Trazado 38" d="M98.854,40.159a3.377,3.377,0,1,0-6.014,3.075l5.8,11.294a3.365,3.365,0,1,0,5.987-3.075l-5.8-11.294Z" transform="translate(159.192 65.976)" fill="#87c4a1" fill-rule="evenodd"/>
    <path id="Trazado_39" data-name="Trazado 39" d="M94.936,30.166l-12.3,3.075a3.366,3.366,0,0,0,1.633,6.531l12.3-3.075a3.366,3.366,0,1,0-1.633-6.531Z" transform="translate(137.855 51.749)" fill="#dfe194" fill-rule="evenodd"/>
    <path id="Trazado_40" data-name="Trazado 40" d="M73.422,35.424a3.358,3.358,0,1,0-4.082,5.334l10.1,7.674A3.358,3.358,0,1,0,83.518,43.1Z" transform="translate(117.106 59.799)" fill="#fff" fill-rule="evenodd"/>
    <path id="Trazado_41" data-name="Trazado 41" d="M100.961,29.175A3.383,3.383,0,0,0,96.715,31.3l-4,12.029a3.356,3.356,0,1,0,6.368,2.123l4-12.029a3.372,3.372,0,0,0-2.123-4.245Z" transform="translate(159.317 49.937)" fill="#4d4d4d" fill-rule="evenodd"/>
    <path id="Trazado_42" data-name="Trazado 42" d="M90.466,49.241l-12.3,3.075A3.366,3.366,0,0,0,79.8,58.847l12.3-3.075a3.366,3.366,0,1,0-1.633-6.531Z" transform="translate(130.16 84.599)" fill="#87c4a1" fill-rule="evenodd"/>
    <path id="Trazado_43" data-name="Trazado 43" d="M64.95,54.64,55.97,63.62a3.368,3.368,0,0,0,4.763,4.763L69.713,59.4A3.368,3.368,0,1,0,64.95,54.64Z" transform="translate(94.661 92.372)" fill="#fff" fill-rule="evenodd"/>
    <path id="Trazado_44" data-name="Trazado 44" d="M65.387,44.239A3.365,3.365,0,1,0,59.4,47.315l5.8,11.294a3.347,3.347,0,1,0,5.96-3.048l-5.8-11.294Z" transform="translate(101.627 73)" fill="#87c4a1" fill-rule="evenodd"/>
    <path id="Trazado_45" data-name="Trazado 45" d="M73.738,54.352a3.35,3.35,0,0,0-4.245,2.123l-4,12.029a3.356,3.356,0,0,0,6.368,2.123l4-12.029A3.383,3.383,0,0,0,73.738,54.352Z" transform="translate(112.436 93.259)" fill="#4d4d4d" fill-rule="evenodd"/>
    <path id="Trazado_46" data-name="Trazado 46" d="M107.361,33.064a3.35,3.35,0,1,0-4.055,5.334l10.1,7.674a3.358,3.358,0,1,0,4.082-5.334l-10.1-7.674Z" transform="translate(175.532 55.737)" fill="#fff" fill-rule="evenodd"/>
    <path id="Trazado_47" data-name="Trazado 47" d="M124.56,45.787,115.58,54.74a3.368,3.368,0,0,0,4.763,4.763l8.981-8.981a3.368,3.368,0,1,0-4.763-4.763Z" transform="translate(197.276 77.086)" fill="#87c4a1" fill-rule="evenodd"/>
    <path id="Trazado_48" data-name="Trazado 48" d="M134.9,54.546l-12.3,3.075a3.393,3.393,0,0,0-2.449,4.082,3.359,3.359,0,0,0,4.082,2.449l12.3-3.075a3.366,3.366,0,1,0-1.633-6.531Z" transform="translate(206.666 93.717)" fill="#4d4d4d" fill-rule="evenodd"/>
    <path id="Trazado_53" data-name="Trazado 53" d="M31.631,64.79A34.718,34.718,0,0,1,12.69,82.4a34.718,34.718,0,0,1,18.941,17.608A34.622,34.622,0,0,1,50.572,82.4,34.718,34.718,0,0,1,31.631,64.79Z" transform="translate(21.845 111.531)" fill="#dfe194" fill-rule="evenodd"/>
    <path id="Trazado_54" data-name="Trazado 54" d="M159.685,89.735a34.7,34.7,0,0,1-.925,25.854,34.692,34.692,0,0,1,25.854-.925,34.7,34.7,0,0,1,.925-25.854A34.692,34.692,0,0,1,159.685,89.735Z" transform="translate(273.294 152.88)" fill="#fd9b8f" fill-rule="evenodd"/>
    <path id="Trazado_55" data-name="Trazado 55" d="M66.675,151.585a34.626,34.626,0,0,1-.925,25.826,34.692,34.692,0,0,1,25.854-.925,34.622,34.622,0,0,1,.925-25.826A34.692,34.692,0,0,1,66.675,151.585Z" transform="translate(113.184 259.351)" fill="#aed197" fill-rule="evenodd"/>
    <path id="Trazado_56" data-name="Trazado 56" d="M25.038,26.13a7.838,7.838,0,1,0,7.838,7.838,7.84,7.84,0,0,0-7.838-7.838Z" transform="translate(29.609 44.981)" fill="#f9d8c1" fill-rule="evenodd"/>
    <path id="Trazado_57" data-name="Trazado 57" d="M125.1,157.12a7.838,7.838,0,1,0,7.838,7.838A7.84,7.84,0,0,0,125.1,157.12Z" transform="translate(201.855 270.471)" fill="#f9d8c1" fill-rule="evenodd"/>
    <path id="Trazado_58" data-name="Trazado 58" d="M152.639,0a11.729,11.729,0,1,0,11.729,11.729A11.731,11.731,0,0,0,152.639,0Z" transform="translate(242.567)" fill="#aed197" fill-rule="evenodd"/>
    <path id="Trazado_59" data-name="Trazado 59" d="M185.44,55.5a10.287,10.287,0,1,0,10.287,10.287A10.273,10.273,0,0,0,185.44,55.5Zm0,15.839a5.579,5.579,0,1,1,5.579-5.579A5.587,5.587,0,0,1,185.44,71.339Z" transform="translate(301.56 95.539)" fill="#aed197" fill-rule="evenodd"/>
    <path id="Trazado_60" data-name="Trazado 60" d="M182.479,57.23a5.579,5.579,0,1,0,5.579,5.579A5.587,5.587,0,0,0,182.479,57.23Z" transform="translate(304.521 98.517)" fill="#aed197" fill-rule="evenodd"/>
    <path id="Trazado_61" data-name="Trazado 61" d="M35.389,150.92a5.579,5.579,0,1,0,5.579,5.579A5.569,5.569,0,0,0,35.389,150.92Z" transform="translate(51.316 259.798)" fill="#dfe194" fill-rule="evenodd"/>
    <path id="Trazado_62" data-name="Trazado 62" d="M38.367,149.19a10.287,10.287,0,1,0,10.287,10.287A10.279,10.279,0,0,0,38.367,149.19Zm0,15.839a5.579,5.579,0,1,1,5.579-5.579A5.587,5.587,0,0,1,38.367,165.029Z" transform="translate(48.338 256.82)" fill="#dfe194" fill-rule="evenodd"/>
    <path id="Trazado_63" data-name="Trazado 63" d="M7.309,95.51a5.579,5.579,0,1,0,5.579,5.579A5.587,5.587,0,0,0,7.309,95.51Z" transform="translate(2.978 164.414)" fill="#fd9b8f" fill-rule="evenodd"/>
    <path id="Trazado_64" data-name="Trazado 64" d="M10.287,93.78a10.287,10.287,0,1,0,10.287,10.287A10.279,10.279,0,0,0,10.287,93.78Zm0,15.839a5.579,5.579,0,1,1,5.579-5.579A5.587,5.587,0,0,1,10.287,109.619Z" transform="translate(0 161.436)" fill="#fd9b8f" fill-rule="evenodd"/>
    <path id="Trazado_65" data-name="Trazado 65" d="M71.619,3.47A5.579,5.579,0,1,0,77.2,9.049,5.587,5.587,0,0,0,71.619,3.47Z" transform="translate(113.683 5.973)" fill="#fd9b8f" fill-rule="evenodd"/>
    <path id="Trazado_66" data-name="Trazado 66" d="M74.6,1.74A10.273,10.273,0,1,0,84.884,12.027,10.279,10.279,0,0,0,74.6,1.74Zm0,15.839A5.579,5.579,0,1,1,80.176,12,5.587,5.587,0,0,1,74.6,17.579Z" transform="translate(110.705 2.995)" fill="#fd9b8f" fill-rule="evenodd"/>
    <path id="Trazado_67" data-name="Trazado 67" d="M115.76,2.14a25.811,25.811,0,0,1-14.07,13.09,25.8,25.8,0,0,1,14.07,13.09,25.811,25.811,0,0,1,14.07-13.09A25.811,25.811,0,0,1,115.76,2.14Z" transform="translate(175.052 3.684)" fill="#dfe194" fill-rule="evenodd"/>
    <path id="Trazado_71" data-name="Trazado 71" d="M152.639,0a11.729,11.729,0,1,0,11.729,11.729A11.731,11.731,0,0,0,152.639,0Z" transform="translate(607.567 193.929)" fill="#aed197" fill-rule="evenodd"/>
    <path id="Trazado_72" data-name="Trazado 72" d="M185.44,55.5a10.287,10.287,0,1,0,10.287,10.287A10.273,10.273,0,0,0,185.44,55.5Zm0,15.839a5.579,5.579,0,1,1,5.579-5.579A5.587,5.587,0,0,1,185.44,71.339Z" transform="translate(421.56 173.74)" fill="#aed197" fill-rule="evenodd"/>
    <path id="Trazado_73" data-name="Trazado 73" d="M74.6,1.74A10.273,10.273,0,1,0,84.884,12.027,10.279,10.279,0,0,0,74.6,1.74Zm0,15.839A5.579,5.579,0,1,1,80.176,12,5.587,5.587,0,0,1,74.6,17.579Z" transform="translate(503.705 455.907)" fill="#fd9b8f" fill-rule="evenodd"/>
    <path id="Trazado_74" data-name="Trazado 74" d="M115.76,2.14a25.811,25.811,0,0,1-14.07,13.09,25.8,25.8,0,0,1,14.07,13.09,25.811,25.811,0,0,1,14.07-13.09A25.811,25.811,0,0,1,115.76,2.14Z" transform="translate(576.052 328.595)" fill="#dfe194" fill-rule="evenodd"/>
    <path id="Trazado_75" data-name="Trazado 75" d="M31.631,64.79A34.718,34.718,0,0,1,12.69,82.4a34.718,34.718,0,0,1,18.941,17.608A34.622,34.622,0,0,1,50.572,82.4,34.718,34.718,0,0,1,31.631,64.79Z" transform="translate(-196.155 211)" fill="#dfe194" fill-rule="evenodd"/>
    <path id="Trazado_76" data-name="Trazado 76" d="M31.631,64.79A34.718,34.718,0,0,1,12.69,82.4a34.718,34.718,0,0,1,18.941,17.608A34.622,34.622,0,0,1,50.572,82.4,34.718,34.718,0,0,1,31.631,64.79Z" transform="translate(-290.155 59.636)" fill="#dfe194" fill-rule="evenodd"/>
    <path id="Trazado_77" data-name="Trazado 77" d="M71.619,3.47A5.579,5.579,0,1,0,77.2,9.049,5.587,5.587,0,0,0,71.619,3.47Z" transform="translate(-230.564 158.265)" fill="#fd9b8f" fill-rule="evenodd"/>
    <path id="Trazado_78" data-name="Trazado 78" d="M35.389,150.92a5.579,5.579,0,1,0,5.579,5.579A5.569,5.569,0,0,0,35.389,150.92Z" transform="translate(-138.684 -68.896)" fill="#dfe194" fill-rule="evenodd"/>
    <path id="Trazado_79" data-name="Trazado 79" d="M38.367,149.19a10.287,10.287,0,1,0,10.287,10.287A10.279,10.279,0,0,0,38.367,149.19Zm0,15.839a5.579,5.579,0,1,1,5.579-5.579A5.587,5.587,0,0,1,38.367,165.029Z" transform="translate(-141.662 -71.874)" fill="#dfe194" fill-rule="evenodd"/>
  </g>
</svg>
